<svg width="41" height="41" viewBox="0 0 41 41" fill="none" xmlns="http://www.w3.org/2000/svg">
<path d="M20.2754 40.8203C31.1543 40.8203 40.1973 31.7773 40.1973 20.8984C40.1973 10 31.1738 0.976562 20.2949 0.976562C9.39648 0.976562 0.353516 10 0.353516 20.8984C0.353516 31.7773 9.37695 40.8203 20.2754 40.8203ZM9.92383 20.8789C9.92383 20.4297 10.0801 20.1172 10.4902 19.707L17.2871 12.8711C17.5605 12.5977 17.9121 12.4609 18.3418 12.4609C19.1816 12.4609 19.8066 13.0859 19.8066 13.9258C19.8066 14.3555 19.6113 14.7266 19.3574 15.0195L16.8574 17.5L14.416 19.5312L18.6738 19.3555H29.1426C30.0215 19.3555 30.666 19.9805 30.666 20.8789C30.666 21.7578 30.0215 22.3828 29.1426 22.3828H18.6738L14.416 22.2266L16.8574 24.2578L19.3574 26.7383C19.6309 27.0117 19.8066 27.3828 19.8066 27.8125C19.8066 28.6523 19.1816 29.2969 18.3418 29.2969C17.9121 29.2969 17.5605 29.1406 17.2871 28.8672L10.4902 22.0508C10.0996 21.6797 9.92383 21.3281 9.92383 20.8789Z" fill="#CACACA"/>
</svg>
