<svg width="41" height="41" viewBox="0 0 41 41" fill="none" xmlns="http://www.w3.org/2000/svg">
<path d="M20.1113 40.8203C9.23242 40.8203 0.189453 31.7773 0.189453 20.8984C0.189453 10 9.21289 0.976562 20.0918 0.976562C30.9902 0.976562 40.0332 10 40.0332 20.8984C40.0332 31.7773 31.0098 40.8203 20.1113 40.8203ZM30.4629 20.8789C30.4629 20.4297 30.3066 20.1172 29.8965 19.707L23.0996 12.8711C22.8262 12.5977 22.4746 12.4609 22.0449 12.4609C21.2051 12.4609 20.5801 13.0859 20.5801 13.9258C20.5801 14.3555 20.7754 14.7266 21.0293 15.0195L23.5293 17.5L25.9707 19.5312L21.7129 19.3555H11.2441C10.3652 19.3555 9.7207 19.9805 9.7207 20.8789C9.7207 21.7578 10.3652 22.3828 11.2441 22.3828H21.7129L25.9707 22.2266L23.5293 24.2578L21.0293 26.7383C20.7559 27.0117 20.5801 27.3828 20.5801 27.8125C20.5801 28.6523 21.2051 29.2969 22.0449 29.2969C22.4746 29.2969 22.8262 29.1406 23.0996 28.8672L29.8965 22.0508C30.2871 21.6797 30.4629 21.3281 30.4629 20.8789Z" fill="#1D2128"/>
</svg>
