<svg width="503" height="34" viewBox="0 0 503 34" fill="none" xmlns="http://www.w3.org/2000/svg">
<mask id="mask0_6_414" style="mask-type:alpha" maskUnits="userSpaceOnUse" x="0" y="0" width="35" height="34">
<rect x="0.193359" width="34" height="34" fill="#D9D9D9"/>
</mask>
<g mask="url(#mask0_6_414)">
<path d="M15.7767 27.5184V17.8143L7.27669 12.8913V22.5955L15.7767 27.5184ZM18.61 27.5184L27.11 22.5955V12.8913L18.61 17.8143V27.5184ZM15.7767 30.7768L5.86003 25.0747C5.41141 24.815 5.06315 24.4726 4.81523 24.0476C4.56732 23.6226 4.44336 23.1504 4.44336 22.6309V11.3684C4.44336 10.849 4.56732 10.3768 4.81523 9.95176C5.06315 9.52676 5.41141 9.1844 5.86003 8.92467L15.7767 3.22259C16.2253 2.96287 16.6975 2.83301 17.1934 2.83301C17.6892 2.83301 18.1614 2.96287 18.61 3.22259L28.5267 8.92467C28.9753 9.1844 29.3236 9.52676 29.5715 9.95176C29.8194 10.3768 29.9434 10.849 29.9434 11.3684V22.6309C29.9434 23.1504 29.8194 23.6226 29.5715 24.0476C29.3236 24.4726 28.9753 24.815 28.5267 25.0747L18.61 30.7768C18.1614 31.0365 17.6892 31.1663 17.1934 31.1663C16.6975 31.1663 16.2253 31.0365 15.7767 30.7768ZM22.86 12.0768L25.5871 10.5184L17.1934 5.66634L14.4309 7.26009L22.86 12.0768ZM17.1934 15.3705L19.9559 13.7768L11.5621 8.92467L8.79961 10.5184L17.1934 15.3705Z" fill="#1C1B1F"/>
</g>
<path d="M51.0684 16.775H60.0934V18.925H51.0684V16.775ZM51.3184 26H48.8184V8.5H61.1684V10.675H51.3184V26ZM64.0934 26V12.75H66.3934V16.35L66.1684 15.45C66.535 14.5333 67.1517 13.8333 68.0184 13.35C68.885 12.8667 69.9517 12.625 71.2184 12.625V14.95C71.1184 14.9333 71.0184 14.925 70.9184 14.925C70.835 14.925 70.7517 14.925 70.6684 14.925C69.385 14.925 68.3684 15.3083 67.6184 16.075C66.8684 16.8417 66.4934 17.95 66.4934 19.4V26H64.0934ZM79.9543 26.15C78.5376 26.15 77.2876 25.8583 76.2043 25.275C75.1376 24.6917 74.3043 23.8917 73.7043 22.875C73.121 21.8583 72.8293 20.6917 72.8293 19.375C72.8293 18.0583 73.1126 16.8917 73.6793 15.875C74.2626 14.8583 75.0543 14.0667 76.0543 13.5C77.071 12.9167 78.2126 12.625 79.4793 12.625C80.7626 12.625 81.896 12.9083 82.8793 13.475C83.8626 14.0417 84.6293 14.8417 85.1793 15.875C85.746 16.8917 86.0293 18.0833 86.0293 19.45C86.0293 19.55 86.021 19.6667 86.0043 19.8C86.0043 19.9333 85.996 20.0583 85.9793 20.175H74.7043V18.45H84.7293L83.7543 19.05C83.771 18.2 83.596 17.4417 83.2293 16.775C82.8626 16.1083 82.3543 15.5917 81.7043 15.225C81.071 14.8417 80.3293 14.65 79.4793 14.65C78.646 14.65 77.9043 14.8417 77.2543 15.225C76.6043 15.5917 76.096 16.1167 75.7293 16.8C75.3626 17.4667 75.1793 18.2333 75.1793 19.1V19.5C75.1793 20.3833 75.3793 21.175 75.7793 21.875C76.196 22.5583 76.771 23.0917 77.5043 23.475C78.2376 23.8583 79.0793 24.05 80.0293 24.05C80.8126 24.05 81.521 23.9167 82.1543 23.65C82.8043 23.3833 83.371 22.9833 83.8543 22.45L85.1793 24C84.5793 24.7 83.8293 25.2333 82.9293 25.6C82.046 25.9667 81.0543 26.15 79.9543 26.15ZM95.2619 26.15C93.8452 26.15 92.5952 25.8583 91.5119 25.275C90.4452 24.6917 89.6119 23.8917 89.0119 22.875C88.4286 21.8583 88.1369 20.6917 88.1369 19.375C88.1369 18.0583 88.4202 16.8917 88.9869 15.875C89.5702 14.8583 90.3619 14.0667 91.3619 13.5C92.3786 12.9167 93.5202 12.625 94.7869 12.625C96.0702 12.625 97.2036 12.9083 98.1869 13.475C99.1702 14.0417 99.9369 14.8417 100.487 15.875C101.054 16.8917 101.337 18.0833 101.337 19.45C101.337 19.55 101.329 19.6667 101.312 19.8C101.312 19.9333 101.304 20.0583 101.287 20.175H90.0119V18.45H100.037L99.0619 19.05C99.0786 18.2 98.9036 17.4417 98.5369 16.775C98.1702 16.1083 97.6619 15.5917 97.0119 15.225C96.3786 14.8417 95.6369 14.65 94.7869 14.65C93.9536 14.65 93.2119 14.8417 92.5619 15.225C91.9119 15.5917 91.4036 16.1167 91.0369 16.8C90.6702 17.4667 90.4869 18.2333 90.4869 19.1V19.5C90.4869 20.3833 90.6869 21.175 91.0869 21.875C91.5036 22.5583 92.0786 23.0917 92.8119 23.475C93.5452 23.8583 94.3869 24.05 95.3369 24.05C96.1202 24.05 96.8286 23.9167 97.4619 23.65C98.1119 23.3833 98.6786 22.9833 99.1619 22.45L100.487 24C99.8869 24.7 99.1369 25.2333 98.2369 25.6C97.3536 25.9667 96.3619 26.15 95.2619 26.15ZM115.183 26.15C114.083 26.15 113.033 26 112.033 25.7C111.05 25.4 110.275 25.0333 109.708 24.6L110.708 22.7C111.275 23.0833 111.975 23.4083 112.808 23.675C113.642 23.9417 114.492 24.075 115.358 24.075C116.475 24.075 117.275 23.9167 117.758 23.6C118.258 23.2833 118.508 22.8417 118.508 22.275C118.508 21.8583 118.358 21.5333 118.058 21.3C117.758 21.0667 117.358 20.8917 116.858 20.775C116.375 20.6583 115.833 20.5583 115.233 20.475C114.633 20.375 114.033 20.2583 113.433 20.125C112.833 19.975 112.283 19.775 111.783 19.525C111.283 19.2583 110.883 18.9 110.583 18.45C110.283 17.9833 110.133 17.3667 110.133 16.6C110.133 15.8 110.358 15.1 110.808 14.5C111.258 13.9 111.892 13.4417 112.708 13.125C113.542 12.7917 114.525 12.625 115.658 12.625C116.525 12.625 117.4 12.7333 118.283 12.95C119.183 13.15 119.917 13.4417 120.483 13.825L119.458 15.725C118.858 15.325 118.233 15.05 117.583 14.9C116.933 14.75 116.283 14.675 115.633 14.675C114.583 14.675 113.8 14.85 113.283 15.2C112.767 15.5333 112.508 15.9667 112.508 16.5C112.508 16.95 112.658 17.3 112.958 17.55C113.275 17.7833 113.675 17.9667 114.158 18.1C114.658 18.2333 115.208 18.35 115.808 18.45C116.408 18.5333 117.008 18.65 117.608 18.8C118.208 18.9333 118.75 19.125 119.233 19.375C119.733 19.625 120.133 19.975 120.433 20.425C120.75 20.875 120.908 21.475 120.908 22.225C120.908 23.025 120.675 23.7167 120.208 24.3C119.742 24.8833 119.083 25.3417 118.233 25.675C117.383 25.9917 116.367 26.15 115.183 26.15ZM130.983 12.625C132.066 12.625 133.016 12.8333 133.833 13.25C134.666 13.6667 135.316 14.3 135.783 15.15C136.249 16 136.483 17.075 136.483 18.375V26H134.083V18.65C134.083 17.3667 133.766 16.4 133.133 15.75C132.516 15.1 131.641 14.775 130.508 14.775C129.658 14.775 128.916 14.9417 128.283 15.275C127.649 15.6083 127.158 16.1 126.808 16.75C126.474 17.4 126.308 18.2083 126.308 19.175V26H123.908V7.45H126.308V16.325L125.833 15.375C126.266 14.5083 126.933 13.8333 127.833 13.35C128.733 12.8667 129.783 12.625 130.983 12.625ZM140.924 26V12.75H143.324V26H140.924ZM142.124 10.2C141.658 10.2 141.266 10.05 140.949 9.75C140.649 9.45 140.499 9.08333 140.499 8.65C140.499 8.2 140.649 7.825 140.949 7.525C141.266 7.225 141.658 7.075 142.124 7.075C142.591 7.075 142.974 7.225 143.274 7.525C143.591 7.80833 143.749 8.16667 143.749 8.6C143.749 9.05 143.599 9.43333 143.299 9.75C142.999 10.05 142.608 10.2 142.124 10.2ZM154.932 26.15C153.832 26.15 152.824 25.9 151.907 25.4C151.007 24.8833 150.282 24.125 149.732 23.125C149.199 22.125 148.932 20.875 148.932 19.375C148.932 17.875 149.19 16.625 149.707 15.625C150.24 14.625 150.957 13.875 151.857 13.375C152.774 12.875 153.799 12.625 154.932 12.625C156.232 12.625 157.382 12.9083 158.382 13.475C159.382 14.0417 160.174 14.8333 160.757 15.85C161.34 16.85 161.632 18.025 161.632 19.375C161.632 20.725 161.34 21.9083 160.757 22.925C160.174 23.9417 159.382 24.7333 158.382 25.3C157.382 25.8667 156.232 26.15 154.932 26.15ZM147.907 30.85V12.75H150.207V16.325L150.057 19.4L150.307 22.475V30.85H147.907ZM154.732 24.05C155.582 24.05 156.34 23.8583 157.007 23.475C157.69 23.0917 158.224 22.55 158.607 21.85C159.007 21.1333 159.207 20.3083 159.207 19.375C159.207 18.425 159.007 17.6083 158.607 16.925C158.224 16.225 157.69 15.6833 157.007 15.3C156.34 14.9167 155.582 14.725 154.732 14.725C153.899 14.725 153.14 14.9167 152.457 15.3C151.79 15.6833 151.257 16.225 150.857 16.925C150.474 17.6083 150.282 18.425 150.282 19.375C150.282 20.3083 150.474 21.1333 150.857 21.85C151.257 22.55 151.79 23.0917 152.457 23.475C153.14 23.8583 153.899 24.05 154.732 24.05ZM171.973 26.15C170.873 26.15 169.865 25.9 168.948 25.4C168.048 24.8833 167.323 24.125 166.773 23.125C166.24 22.125 165.973 20.875 165.973 19.375C165.973 17.875 166.231 16.625 166.748 15.625C167.281 14.625 167.998 13.875 168.898 13.375C169.815 12.875 170.84 12.625 171.973 12.625C173.273 12.625 174.423 12.9083 175.423 13.475C176.423 14.0417 177.215 14.8333 177.798 15.85C178.381 16.85 178.673 18.025 178.673 19.375C178.673 20.725 178.381 21.9083 177.798 22.925C177.215 23.9417 176.423 24.7333 175.423 25.3C174.423 25.8667 173.273 26.15 171.973 26.15ZM164.948 30.85V12.75H167.248V16.325L167.098 19.4L167.348 22.475V30.85H164.948ZM171.773 24.05C172.623 24.05 173.381 23.8583 174.048 23.475C174.731 23.0917 175.265 22.55 175.648 21.85C176.048 21.1333 176.248 20.3083 176.248 19.375C176.248 18.425 176.048 17.6083 175.648 16.925C175.265 16.225 174.731 15.6833 174.048 15.3C173.381 14.9167 172.623 14.725 171.773 14.725C170.94 14.725 170.181 14.9167 169.498 15.3C168.831 15.6833 168.298 16.225 167.898 16.925C167.515 17.6083 167.323 18.425 167.323 19.375C167.323 20.3083 167.515 21.1333 167.898 21.85C168.298 22.55 168.831 23.0917 169.498 23.475C170.181 23.8583 170.94 24.05 171.773 24.05ZM181.989 26V12.75H184.389V26H181.989ZM183.189 10.2C182.722 10.2 182.331 10.05 182.014 9.75C181.714 9.45 181.564 9.08333 181.564 8.65C181.564 8.2 181.714 7.825 182.014 7.525C182.331 7.225 182.722 7.075 183.189 7.075C183.656 7.075 184.039 7.225 184.339 7.525C184.656 7.80833 184.814 8.16667 184.814 8.6C184.814 9.05 184.664 9.43333 184.364 9.75C184.064 10.05 183.672 10.2 183.189 10.2ZM196.046 12.625C197.13 12.625 198.08 12.8333 198.896 13.25C199.73 13.6667 200.38 14.3 200.846 15.15C201.313 16 201.546 17.075 201.546 18.375V26H199.146V18.65C199.146 17.3667 198.83 16.4 198.196 15.75C197.58 15.1 196.705 14.775 195.571 14.775C194.721 14.775 193.98 14.9417 193.346 15.275C192.713 15.6083 192.221 16.1 191.871 16.75C191.538 17.4 191.371 18.2083 191.371 19.175V26H188.971V12.75H191.271V16.325L190.896 15.375C191.33 14.5083 191.996 13.8333 192.896 13.35C193.796 12.8667 194.846 12.625 196.046 12.625ZM211.788 31C210.571 31 209.388 30.825 208.238 30.475C207.105 30.1417 206.18 29.6583 205.463 29.025L206.613 27.175C207.23 27.7083 207.988 28.125 208.888 28.425C209.788 28.7417 210.73 28.9 211.713 28.9C213.28 28.9 214.43 28.5333 215.163 27.8C215.896 27.0667 216.263 25.95 216.263 24.45V21.65L216.513 19.025L216.388 16.375V12.75H218.663V24.2C218.663 26.5333 218.08 28.25 216.913 29.35C215.746 30.45 214.038 31 211.788 31ZM211.488 25.45C210.205 25.45 209.055 25.1833 208.038 24.65C207.038 24.1 206.238 23.3417 205.638 22.375C205.055 21.4083 204.763 20.2917 204.763 19.025C204.763 17.7417 205.055 16.625 205.638 15.675C206.238 14.7083 207.038 13.9583 208.038 13.425C209.055 12.8917 210.205 12.625 211.488 12.625C212.621 12.625 213.655 12.8583 214.588 13.325C215.521 13.775 216.263 14.475 216.813 15.425C217.38 16.375 217.663 17.575 217.663 19.025C217.663 20.4583 217.38 21.65 216.813 22.6C216.263 23.55 215.521 24.2667 214.588 24.75C213.655 25.2167 212.621 25.45 211.488 25.45ZM211.763 23.35C212.646 23.35 213.43 23.1667 214.113 22.8C214.796 22.4333 215.33 21.925 215.713 21.275C216.113 20.625 216.313 19.875 216.313 19.025C216.313 18.175 216.113 17.425 215.713 16.775C215.33 16.125 214.796 15.625 214.113 15.275C213.43 14.9083 212.646 14.725 211.763 14.725C210.88 14.725 210.088 14.9083 209.388 15.275C208.705 15.625 208.163 16.125 207.763 16.775C207.38 17.425 207.188 18.175 207.188 19.025C207.188 19.875 207.38 20.625 207.763 21.275C208.163 21.925 208.705 22.4333 209.388 22.8C210.088 23.1667 210.88 23.35 211.763 23.35ZM235.638 26.15C234.304 26.15 233.121 25.8583 232.088 25.275C231.054 24.6917 230.238 23.8917 229.638 22.875C229.038 21.8417 228.738 20.675 228.738 19.375C228.738 18.0583 229.038 16.8917 229.638 15.875C230.238 14.8583 231.054 14.0667 232.088 13.5C233.121 12.9167 234.304 12.625 235.638 12.625C236.954 12.625 238.129 12.9167 239.163 13.5C240.213 14.0667 241.029 14.8583 241.613 15.875C242.213 16.875 242.513 18.0417 242.513 19.375C242.513 20.6917 242.213 21.8583 241.613 22.875C241.029 23.8917 240.213 24.6917 239.163 25.275C238.129 25.8583 236.954 26.15 235.638 26.15ZM235.638 24.05C236.488 24.05 237.246 23.8583 237.913 23.475C238.596 23.0917 239.129 22.55 239.513 21.85C239.896 21.1333 240.088 20.3083 240.088 19.375C240.088 18.425 239.896 17.6083 239.513 16.925C239.129 16.225 238.596 15.6833 237.913 15.3C237.246 14.9167 236.488 14.725 235.638 14.725C234.788 14.725 234.029 14.9167 233.363 15.3C232.696 15.6833 232.163 16.225 231.763 16.925C231.363 17.6083 231.163 18.425 231.163 19.375C231.163 20.3083 231.363 21.1333 231.763 21.85C232.163 22.55 232.696 23.0917 233.363 23.475C234.029 23.8583 234.788 24.05 235.638 24.05ZM252.907 12.625C253.99 12.625 254.94 12.8333 255.757 13.25C256.59 13.6667 257.24 14.3 257.707 15.15C258.173 16 258.407 17.075 258.407 18.375V26H256.007V18.65C256.007 17.3667 255.69 16.4 255.057 15.75C254.44 15.1 253.565 14.775 252.432 14.775C251.582 14.775 250.84 14.9417 250.207 15.275C249.573 15.6083 249.082 16.1 248.732 16.75C248.398 17.4 248.232 18.2083 248.232 19.175V26H245.832V12.75H248.132V16.325L247.757 15.375C248.19 14.5083 248.857 13.8333 249.757 13.35C250.657 12.8667 251.707 12.625 252.907 12.625ZM275.237 26.15C273.904 26.15 272.72 25.8583 271.687 25.275C270.654 24.6917 269.837 23.8917 269.237 22.875C268.637 21.8417 268.337 20.675 268.337 19.375C268.337 18.0583 268.637 16.8917 269.237 15.875C269.837 14.8583 270.654 14.0667 271.687 13.5C272.72 12.9167 273.904 12.625 275.237 12.625C276.554 12.625 277.729 12.9167 278.762 13.5C279.812 14.0667 280.629 14.8583 281.212 15.875C281.812 16.875 282.112 18.0417 282.112 19.375C282.112 20.6917 281.812 21.8583 281.212 22.875C280.629 23.8917 279.812 24.6917 278.762 25.275C277.729 25.8583 276.554 26.15 275.237 26.15ZM275.237 24.05C276.087 24.05 276.845 23.8583 277.512 23.475C278.195 23.0917 278.729 22.55 279.112 21.85C279.495 21.1333 279.687 20.3083 279.687 19.375C279.687 18.425 279.495 17.6083 279.112 16.925C278.729 16.225 278.195 15.6833 277.512 15.3C276.845 14.9167 276.087 14.725 275.237 14.725C274.387 14.725 273.629 14.9167 272.962 15.3C272.295 15.6833 271.762 16.225 271.362 16.925C270.962 17.6083 270.762 18.425 270.762 19.375C270.762 20.3083 270.962 21.1333 271.362 21.85C271.762 22.55 272.295 23.0917 272.962 23.475C273.629 23.8583 274.387 24.05 275.237 24.05ZM285.431 26V12.75H287.731V16.35L287.506 15.45C287.873 14.5333 288.49 13.8333 289.356 13.35C290.223 12.8667 291.29 12.625 292.556 12.625V14.95C292.456 14.9333 292.356 14.925 292.256 14.925C292.173 14.925 292.09 14.925 292.006 14.925C290.723 14.925 289.706 15.3083 288.956 16.075C288.206 16.8417 287.831 17.95 287.831 19.4V26H285.431ZM300.867 26.15C299.584 26.15 298.434 25.8667 297.417 25.3C296.417 24.7333 295.626 23.9417 295.042 22.925C294.459 21.9083 294.167 20.725 294.167 19.375C294.167 18.025 294.459 16.85 295.042 15.85C295.626 14.8333 296.417 14.0417 297.417 13.475C298.434 12.9083 299.584 12.625 300.867 12.625C301.984 12.625 302.992 12.875 303.892 13.375C304.792 13.875 305.509 14.625 306.042 15.625C306.592 16.625 306.867 17.875 306.867 19.375C306.867 20.875 306.601 22.125 306.067 23.125C305.551 24.125 304.842 24.8833 303.942 25.4C303.042 25.9 302.017 26.15 300.867 26.15ZM301.067 24.05C301.901 24.05 302.651 23.8583 303.317 23.475C304.001 23.0917 304.534 22.55 304.917 21.85C305.317 21.1333 305.517 20.3083 305.517 19.375C305.517 18.425 305.317 17.6083 304.917 16.925C304.534 16.225 304.001 15.6833 303.317 15.3C302.651 14.9167 301.901 14.725 301.067 14.725C300.217 14.725 299.459 14.9167 298.792 15.3C298.126 15.6833 297.592 16.225 297.192 16.925C296.792 17.6083 296.592 18.425 296.592 19.375C296.592 20.3083 296.792 21.1333 297.192 21.85C297.592 22.55 298.126 23.0917 298.792 23.475C299.459 23.8583 300.217 24.05 301.067 24.05ZM305.592 26V22.425L305.742 19.35L305.492 16.275V7.45H307.892V26H305.592ZM318.333 26.15C316.917 26.15 315.667 25.8583 314.583 25.275C313.517 24.6917 312.683 23.8917 312.083 22.875C311.5 21.8583 311.208 20.6917 311.208 19.375C311.208 18.0583 311.492 16.8917 312.058 15.875C312.642 14.8583 313.433 14.0667 314.433 13.5C315.45 12.9167 316.592 12.625 317.858 12.625C319.142 12.625 320.275 12.9083 321.258 13.475C322.242 14.0417 323.008 14.8417 323.558 15.875C324.125 16.8917 324.408 18.0833 324.408 19.45C324.408 19.55 324.4 19.6667 324.383 19.8C324.383 19.9333 324.375 20.0583 324.358 20.175H313.083V18.45H323.108L322.133 19.05C322.15 18.2 321.975 17.4417 321.608 16.775C321.242 16.1083 320.733 15.5917 320.083 15.225C319.45 14.8417 318.708 14.65 317.858 14.65C317.025 14.65 316.283 14.8417 315.633 15.225C314.983 15.5917 314.475 16.1167 314.108 16.8C313.742 17.4667 313.558 18.2333 313.558 19.1V19.5C313.558 20.3833 313.758 21.175 314.158 21.875C314.575 22.5583 315.15 23.0917 315.883 23.475C316.617 23.8583 317.458 24.05 318.408 24.05C319.192 24.05 319.9 23.9167 320.533 23.65C321.183 23.3833 321.75 22.9833 322.233 22.45L323.558 24C322.958 24.7 322.208 25.2333 321.308 25.6C320.425 25.9667 319.433 26.15 318.333 26.15ZM327.741 26V12.75H330.041V16.35L329.816 15.45C330.182 14.5333 330.799 13.8333 331.666 13.35C332.532 12.8667 333.599 12.625 334.866 12.625V14.95C334.766 14.9333 334.666 14.925 334.566 14.925C334.482 14.925 334.399 14.925 334.316 14.925C333.032 14.925 332.016 15.3083 331.266 16.075C330.516 16.8417 330.141 17.95 330.141 19.4V26H327.741ZM341.77 26.15C340.67 26.15 339.62 26 338.62 25.7C337.637 25.4 336.862 25.0333 336.295 24.6L337.295 22.7C337.862 23.0833 338.562 23.4083 339.395 23.675C340.229 23.9417 341.079 24.075 341.945 24.075C343.062 24.075 343.862 23.9167 344.345 23.6C344.845 23.2833 345.095 22.8417 345.095 22.275C345.095 21.8583 344.945 21.5333 344.645 21.3C344.345 21.0667 343.945 20.8917 343.445 20.775C342.962 20.6583 342.42 20.5583 341.82 20.475C341.22 20.375 340.62 20.2583 340.02 20.125C339.42 19.975 338.87 19.775 338.37 19.525C337.87 19.2583 337.47 18.9 337.17 18.45C336.87 17.9833 336.72 17.3667 336.72 16.6C336.72 15.8 336.945 15.1 337.395 14.5C337.845 13.9 338.479 13.4417 339.295 13.125C340.129 12.7917 341.112 12.625 342.245 12.625C343.112 12.625 343.987 12.7333 344.87 12.95C345.77 13.15 346.504 13.4417 347.07 13.825L346.045 15.725C345.445 15.325 344.82 15.05 344.17 14.9C343.52 14.75 342.87 14.675 342.22 14.675C341.17 14.675 340.387 14.85 339.87 15.2C339.354 15.5333 339.095 15.9667 339.095 16.5C339.095 16.95 339.245 17.3 339.545 17.55C339.862 17.7833 340.262 17.9667 340.745 18.1C341.245 18.2333 341.795 18.35 342.395 18.45C342.995 18.5333 343.595 18.65 344.195 18.8C344.795 18.9333 345.337 19.125 345.82 19.375C346.32 19.625 346.72 19.975 347.02 20.425C347.337 20.875 347.495 21.475 347.495 22.225C347.495 23.025 347.262 23.7167 346.795 24.3C346.329 24.8833 345.67 25.3417 344.82 25.675C343.97 25.9917 342.954 26.15 341.77 26.15ZM362.884 26.15C361.55 26.15 360.367 25.8583 359.334 25.275C358.3 24.6917 357.484 23.8917 356.884 22.875C356.284 21.8417 355.984 20.675 355.984 19.375C355.984 18.0583 356.284 16.8917 356.884 15.875C357.484 14.8583 358.3 14.0667 359.334 13.5C360.367 12.9167 361.55 12.625 362.884 12.625C364.2 12.625 365.375 12.9167 366.409 13.5C367.459 14.0667 368.275 14.8583 368.859 15.875C369.459 16.875 369.759 18.0417 369.759 19.375C369.759 20.6917 369.459 21.8583 368.859 22.875C368.275 23.8917 367.459 24.6917 366.409 25.275C365.375 25.8583 364.2 26.15 362.884 26.15ZM362.884 24.05C363.734 24.05 364.492 23.8583 365.159 23.475C365.842 23.0917 366.375 22.55 366.759 21.85C367.142 21.1333 367.334 20.3083 367.334 19.375C367.334 18.425 367.142 17.6083 366.759 16.925C366.375 16.225 365.842 15.6833 365.159 15.3C364.492 14.9167 363.734 14.725 362.884 14.725C362.034 14.725 361.275 14.9167 360.609 15.3C359.942 15.6833 359.409 16.225 359.009 16.925C358.609 17.6083 358.409 18.425 358.409 19.375C358.409 20.3083 358.609 21.1333 359.009 21.85C359.409 22.55 359.942 23.0917 360.609 23.475C361.275 23.8583 362.034 24.05 362.884 24.05ZM376.187 26L370.387 12.75H372.887L378.037 24.75H376.837L382.087 12.75H384.437L378.637 26H376.187ZM392.21 26.15C390.793 26.15 389.543 25.8583 388.46 25.275C387.393 24.6917 386.56 23.8917 385.96 22.875C385.377 21.8583 385.085 20.6917 385.085 19.375C385.085 18.0583 385.368 16.8917 385.935 15.875C386.518 14.8583 387.31 14.0667 388.31 13.5C389.327 12.9167 390.468 12.625 391.735 12.625C393.018 12.625 394.152 12.9083 395.135 13.475C396.118 14.0417 396.885 14.8417 397.435 15.875C398.002 16.8917 398.285 18.0833 398.285 19.45C398.285 19.55 398.277 19.6667 398.26 19.8C398.26 19.9333 398.252 20.0583 398.235 20.175H386.96V18.45H396.985L396.01 19.05C396.027 18.2 395.852 17.4417 395.485 16.775C395.118 16.1083 394.61 15.5917 393.96 15.225C393.327 14.8417 392.585 14.65 391.735 14.65C390.902 14.65 390.16 14.8417 389.51 15.225C388.86 15.5917 388.352 16.1167 387.985 16.8C387.618 17.4667 387.435 18.2333 387.435 19.1V19.5C387.435 20.3833 387.635 21.175 388.035 21.875C388.452 22.5583 389.027 23.0917 389.76 23.475C390.493 23.8583 391.335 24.05 392.285 24.05C393.068 24.05 393.777 23.9167 394.41 23.65C395.06 23.3833 395.627 22.9833 396.11 22.45L397.435 24C396.835 24.7 396.085 25.2333 395.185 25.6C394.302 25.9667 393.31 26.15 392.21 26.15ZM401.618 26V12.75H403.918V16.35L403.693 15.45C404.059 14.5333 404.676 13.8333 405.543 13.35C406.409 12.8667 407.476 12.625 408.743 12.625V14.95C408.643 14.9333 408.543 14.925 408.443 14.925C408.359 14.925 408.276 14.925 408.193 14.925C406.909 14.925 405.893 15.3083 405.143 16.075C404.393 16.8417 404.018 17.95 404.018 19.4V26H401.618ZM419.786 25.65V14.8C419.786 13.4833 420.069 12.3417 420.636 11.375C421.219 10.3917 422.061 9.63333 423.161 9.1C424.261 8.56667 425.594 8.3 427.161 8.3C428.177 8.3 429.086 8.4 429.886 8.6C430.686 8.8 431.419 9.11667 432.086 9.55L431.261 11.625C430.677 11.2083 430.019 10.925 429.286 10.775C428.552 10.6083 427.769 10.525 426.936 10.525C425.386 10.525 424.219 10.8917 423.436 11.625C422.652 12.3583 422.261 13.4083 422.261 14.775V25.65H419.786ZM417.061 26V23.825H431.711V26H417.061ZM417.061 18.075V16.425H428.911V18.075H417.061ZM439.005 26.2C437.772 26.2 436.572 26.0083 435.405 25.625C434.255 25.2417 433.314 24.725 432.58 24.075L433.73 22.1C434.314 22.65 435.072 23.1 436.005 23.45C436.939 23.8 437.93 23.975 438.98 23.975C440.314 23.975 441.339 23.6917 442.055 23.125C442.772 22.5583 443.13 21.8 443.13 20.85C443.13 20.2 442.972 19.6333 442.655 19.15C442.339 18.6667 441.789 18.3 441.005 18.05C440.239 17.7833 439.18 17.65 437.83 17.65H433.855L434.78 8.5H444.655V10.675H435.705L437.005 9.45L436.28 16.675L434.98 15.475H438.355C440.105 15.475 441.514 15.7 442.58 16.15C443.647 16.6 444.422 17.225 444.905 18.025C445.389 18.8083 445.63 19.7167 445.63 20.75C445.63 21.75 445.389 22.6667 444.905 23.5C444.422 24.3167 443.689 24.975 442.705 25.475C441.739 25.9583 440.505 26.2 439.005 26.2ZM454.861 26.2C453.494 26.2 452.269 25.85 451.186 25.15C450.119 24.45 449.269 23.4333 448.636 22.1C448.019 20.7667 447.711 19.15 447.711 17.25C447.711 15.35 448.019 13.7333 448.636 12.4C449.269 11.0667 450.119 10.05 451.186 9.35C452.269 8.65 453.494 8.3 454.861 8.3C456.211 8.3 457.427 8.65 458.511 9.35C459.594 10.05 460.444 11.0667 461.061 12.4C461.677 13.7333 461.986 15.35 461.986 17.25C461.986 19.15 461.677 20.7667 461.061 22.1C460.444 23.4333 459.594 24.45 458.511 25.15C457.427 25.85 456.211 26.2 454.861 26.2ZM454.861 23.975C455.777 23.975 456.577 23.725 457.261 23.225C457.961 22.725 458.502 21.975 458.886 20.975C459.286 19.975 459.486 18.7333 459.486 17.25C459.486 15.7667 459.286 14.525 458.886 13.525C458.502 12.525 457.961 11.775 457.261 11.275C456.577 10.775 455.777 10.525 454.861 10.525C453.944 10.525 453.136 10.775 452.436 11.275C451.736 11.775 451.186 12.525 450.786 13.525C450.402 14.525 450.211 15.7667 450.211 17.25C450.211 18.7333 450.402 19.975 450.786 20.975C451.186 21.975 451.736 22.725 452.436 23.225C453.136 23.725 453.944 23.975 454.861 23.975ZM465.743 26.15C465.276 26.15 464.876 25.9917 464.543 25.675C464.209 25.3417 464.043 24.925 464.043 24.425C464.043 23.925 464.209 23.5167 464.543 23.2C464.876 22.8833 465.276 22.725 465.743 22.725C466.193 22.725 466.576 22.8833 466.893 23.2C467.226 23.5167 467.393 23.925 467.393 24.425C467.393 24.925 467.226 25.3417 466.893 25.675C466.576 25.9917 466.193 26.15 465.743 26.15ZM476.614 26.2C475.247 26.2 474.022 25.85 472.939 25.15C471.872 24.45 471.022 23.4333 470.389 22.1C469.772 20.7667 469.464 19.15 469.464 17.25C469.464 15.35 469.772 13.7333 470.389 12.4C471.022 11.0667 471.872 10.05 472.939 9.35C474.022 8.65 475.247 8.3 476.614 8.3C477.964 8.3 479.18 8.65 480.264 9.35C481.347 10.05 482.197 11.0667 482.814 12.4C483.43 13.7333 483.739 15.35 483.739 17.25C483.739 19.15 483.43 20.7667 482.814 22.1C482.197 23.4333 481.347 24.45 480.264 25.15C479.18 25.85 477.964 26.2 476.614 26.2ZM476.614 23.975C477.53 23.975 478.33 23.725 479.014 23.225C479.714 22.725 480.255 21.975 480.639 20.975C481.039 19.975 481.239 18.7333 481.239 17.25C481.239 15.7667 481.039 14.525 480.639 13.525C480.255 12.525 479.714 11.775 479.014 11.275C478.33 10.775 477.53 10.525 476.614 10.525C475.697 10.525 474.889 10.775 474.189 11.275C473.489 11.775 472.939 12.525 472.539 13.525C472.155 14.525 471.964 15.7667 471.964 17.25C471.964 18.7333 472.155 19.975 472.539 20.975C472.939 21.975 473.489 22.725 474.189 23.225C474.889 23.725 475.697 23.975 476.614 23.975ZM493.288 26.2C491.922 26.2 490.697 25.85 489.613 25.15C488.547 24.45 487.697 23.4333 487.063 22.1C486.447 20.7667 486.138 19.15 486.138 17.25C486.138 15.35 486.447 13.7333 487.063 12.4C487.697 11.0667 488.547 10.05 489.613 9.35C490.697 8.65 491.922 8.3 493.288 8.3C494.638 8.3 495.855 8.65 496.938 9.35C498.022 10.05 498.872 11.0667 499.488 12.4C500.105 13.7333 500.413 15.35 500.413 17.25C500.413 19.15 500.105 20.7667 499.488 22.1C498.872 23.4333 498.022 24.45 496.938 25.15C495.855 25.85 494.638 26.2 493.288 26.2ZM493.288 23.975C494.205 23.975 495.005 23.725 495.688 23.225C496.388 22.725 496.93 21.975 497.313 20.975C497.713 19.975 497.913 18.7333 497.913 17.25C497.913 15.7667 497.713 14.525 497.313 13.525C496.93 12.525 496.388 11.775 495.688 11.275C495.005 10.775 494.205 10.525 493.288 10.525C492.372 10.525 491.563 10.775 490.863 11.275C490.163 11.775 489.613 12.525 489.213 13.525C488.83 14.525 488.638 15.7667 488.638 17.25C488.638 18.7333 488.83 19.975 489.213 20.975C489.613 21.975 490.163 22.725 490.863 23.225C491.563 23.725 492.372 23.975 493.288 23.975Z" fill="black"/>
</svg>
