<svg width="141" height="32" viewBox="0 0 141 32" fill="none" xmlns="http://www.w3.org/2000/svg">
<path d="M2.54865 25V8.54123C2.54865 6.53506 3.14232 4.93831 4.32964 3.75099C5.53744 2.54319 7.25701 1.93929 9.48836 1.93929C10.2048 1.93929 10.9111 2.01094 11.6071 2.15424C12.3031 2.29754 12.8866 2.51248 13.3574 2.79908L11.9142 6.91377C11.6685 6.77047 11.3922 6.65788 11.0851 6.576C10.778 6.47364 10.471 6.42247 10.1639 6.42247C9.54977 6.42247 9.0687 6.60671 8.72069 6.97519C8.39316 7.32319 8.22939 7.86568 8.22939 8.60264V9.8002L8.38292 12.226V25H2.54865ZM0.122827 13.3315V8.97112H12.1905V13.3315H0.122827ZM14.862 25V8.35698H20.6963V25H14.862ZM17.7792 6.51458C16.7147 6.51458 15.8549 6.21775 15.1998 5.62409C14.5447 5.03043 14.2172 4.29347 14.2172 3.41321C14.2172 2.53295 14.5447 1.79599 15.1998 1.20233C15.8549 0.60867 16.7147 0.311839 17.7792 0.311839C18.8437 0.311839 19.7034 0.598435 20.3585 1.17163C21.0136 1.72435 21.3411 2.44083 21.3411 3.32109C21.3411 4.24229 21.0136 5.00996 20.3585 5.62409C19.7239 6.21775 18.8641 6.51458 17.7792 6.51458ZM31.9143 25.2764C29.7853 25.2764 28.1271 24.7543 26.9398 23.7103C25.7525 22.6458 25.1588 21.0491 25.1588 18.9201V4.64148H30.9931V18.8587C30.9931 19.4523 31.1569 19.9232 31.4844 20.2712C31.8119 20.5987 32.2316 20.7625 32.7434 20.7625C33.4394 20.7625 34.0331 20.5885 34.5244 20.2405L35.9676 24.3245C35.4763 24.652 34.8724 24.8874 34.1559 25.0307C33.4394 25.1945 32.6922 25.2764 31.9143 25.2764ZM22.733 13.3315V8.97112H34.8007V13.3315H22.733ZM48.6883 25.2764C47.1939 25.2764 45.9452 24.9693 44.9421 24.3552C43.9595 23.741 43.2225 22.7994 42.7312 21.5301C42.2399 20.2609 41.9942 18.6335 41.9942 16.6478C41.9942 14.703 42.2501 13.096 42.7619 11.8268C43.2942 10.5576 44.0618 9.61596 45.0649 9.00183C46.068 8.38769 47.2758 8.08063 48.6883 8.08063C50.2032 8.08063 51.5747 8.42864 52.803 9.12465C54.0517 9.82067 55.0343 10.8135 55.7508 12.1032C56.4878 13.3724 56.8563 14.8873 56.8563 16.6478C56.8563 18.4288 56.4878 19.9641 55.7508 21.2538C55.0343 22.523 54.0517 23.5158 52.803 24.2323C51.5747 24.9284 50.2032 25.2764 48.6883 25.2764ZM38.2173 25V2.21565H44.0516V11.1513L43.7445 16.6478L43.7752 22.1443V25H38.2173ZM47.46 20.6397C48.1151 20.6397 48.6985 20.4861 49.2103 20.1791C49.7426 19.872 50.1622 19.4216 50.4693 18.828C50.7968 18.2138 50.9606 17.4871 50.9606 16.6478C50.9606 15.8085 50.7968 15.1022 50.4693 14.529C50.1622 13.9354 49.7426 13.485 49.2103 13.1779C48.6985 12.8709 48.1151 12.7173 47.46 12.7173C46.805 12.7173 46.2113 12.8709 45.679 13.1779C45.1673 13.485 44.7476 13.9354 44.4201 14.529C44.113 15.1022 43.9595 15.8085 43.9595 16.6478C43.9595 17.4871 44.113 18.2138 44.4201 18.828C44.7476 19.4216 45.1673 19.872 45.679 20.1791C46.2113 20.4861 46.805 20.6397 47.46 20.6397ZM66.5692 25.2764C65.2181 25.2764 64 25.0102 62.9151 24.478C61.8506 23.9457 61.0113 23.1167 60.3971 21.9907C59.8035 20.8444 59.5066 19.4012 59.5066 17.6611V8.35698H65.3409V16.7092C65.3409 17.9989 65.5763 18.9201 66.0472 19.4728C66.5385 20.0255 67.2242 20.3019 68.1045 20.3019C68.6777 20.3019 69.1997 20.1688 69.6705 19.9027C70.1414 19.6366 70.5201 19.2169 70.8067 18.6437C71.0933 18.0501 71.2366 17.2926 71.2366 16.3714V8.35698H77.0709V25H71.5129V20.3019L72.5877 21.6223C72.0145 22.8505 71.1854 23.7717 70.1004 24.3859C69.0155 24.9795 67.8384 25.2764 66.5692 25.2764ZM91.6683 8.08063C92.958 8.08063 94.1248 8.34675 95.1688 8.879C96.2129 9.39078 97.0317 10.1892 97.6254 11.2741C98.2395 12.3591 98.5466 13.7614 98.5466 15.4809V25H92.7123V16.4328C92.7123 15.2455 92.4667 14.3857 91.9753 13.8535C91.5045 13.3008 90.8392 13.0244 89.9794 13.0244C89.3653 13.0244 88.8023 13.1677 88.2905 13.4543C87.7788 13.7204 87.3796 14.1401 87.093 14.7133C86.8064 15.2865 86.6631 16.0337 86.6631 16.9549V25H80.8288V8.35698H86.3867V13.0858L85.312 11.704C85.9466 10.4962 86.8166 9.59549 87.9221 9.00183C89.0275 8.38769 90.2762 8.08063 91.6683 8.08063ZM113.049 8.08063C114.339 8.08063 115.506 8.34675 116.55 8.879C117.594 9.39078 118.412 10.1892 119.006 11.2741C119.62 12.3591 119.927 13.7614 119.927 15.4809V25H114.093V16.4328C114.093 15.2455 113.847 14.3857 113.356 13.8535C112.885 13.3008 112.22 13.0244 111.36 13.0244C110.746 13.0244 110.183 13.1677 109.671 13.4543C109.159 13.7204 108.76 14.1401 108.474 14.7133C108.187 15.2865 108.044 16.0337 108.044 16.9549V25H102.21V8.35698H107.767V13.0858L106.693 11.704C107.327 10.4962 108.197 9.59549 109.303 9.00183C110.408 8.38769 111.657 8.08063 113.049 8.08063ZM126.146 31.2335C125.266 31.2335 124.375 31.0902 123.475 30.8036C122.594 30.5374 121.878 30.1792 121.325 29.7288L123.352 25.6448C123.7 25.9519 124.099 26.1873 124.549 26.3511C125.02 26.5353 125.481 26.6275 125.931 26.6275C126.566 26.6275 127.067 26.4842 127.436 26.1976C127.804 25.911 128.122 25.4606 128.388 24.8465L129.155 22.9119L129.616 22.3285L135.266 8.35698H140.824L133.639 25.6755C133.065 27.1085 132.4 28.2242 131.643 29.0226C130.906 29.8414 130.077 30.4146 129.155 30.7421C128.255 31.0697 127.252 31.2335 126.146 31.2335ZM128.418 25.7063L121.08 8.35698H127.067L132.472 21.8065L128.418 25.7063Z" fill="#1D2128"/>
</svg>
