<svg width="434" height="34" viewBox="0 0 434 34" fill="none" xmlns="http://www.w3.org/2000/svg">
<mask id="mask0_6_415" style="mask-type:alpha" maskUnits="userSpaceOnUse" x="0" y="0" width="35" height="34">
<rect x="0.193359" width="34" height="34" fill="#D9D9D9"/>
</mask>
<g mask="url(#mask0_6_415)">
<path d="M10.9956 9.06659L14.9623 3.93117C15.2456 3.55339 15.5821 3.27596 15.9716 3.09888C16.3612 2.92179 16.7685 2.83325 17.1935 2.83325C17.6185 2.83325 18.0258 2.92179 18.4154 3.09888C18.805 3.27596 19.1414 3.55339 19.4248 3.93117L23.3914 9.06659L29.4123 11.0853C30.0262 11.2742 30.5102 11.6225 30.8644 12.1301C31.2185 12.6378 31.3956 13.1985 31.3956 13.8124C31.3956 14.0958 31.3543 14.3791 31.2716 14.6624C31.189 14.9458 31.0532 15.2173 30.8644 15.477L26.9685 21.002L27.1102 26.8103C27.1338 27.6367 26.8623 28.3333 26.2956 28.8999C25.7289 29.4666 25.0678 29.7499 24.3123 29.7499C24.2651 29.7499 24.0053 29.7145 23.5331 29.6437L17.1935 27.8728L10.8539 29.6437C10.7359 29.6909 10.606 29.7204 10.4644 29.7322C10.3227 29.744 10.1928 29.7499 10.0748 29.7499C9.31922 29.7499 8.65811 29.4666 8.09144 28.8999C7.52477 28.3333 7.25324 27.6367 7.27686 26.8103L7.41852 20.9666L3.55811 15.477C3.36922 15.2173 3.23345 14.9458 3.15081 14.6624C3.06817 14.3791 3.02686 14.0958 3.02686 13.8124C3.02686 13.2221 3.19804 12.6732 3.5404 12.1655C3.88276 11.6579 4.36088 11.2978 4.97477 11.0853L10.9956 9.06659ZM12.731 11.5103L5.86019 13.777L10.2519 20.1166L10.1102 26.8812L17.1935 24.9333L24.2769 26.9166L24.1352 20.1166L28.5269 13.8478L21.656 11.5103L17.1935 5.66659L12.731 11.5103Z" fill="#1C1B1F"/>
</g>
<path d="M51.0684 16.775H60.0934V18.925H51.0684V16.775ZM51.3184 26H48.8184V8.5H61.1684V10.675H51.3184V26ZM64.3375 26V12.75H66.7375V26H64.3375ZM65.5375 10.2C65.0708 10.2 64.6792 10.05 64.3625 9.75C64.0625 9.45 63.9125 9.08333 63.9125 8.65C63.9125 8.2 64.0625 7.825 64.3625 7.525C64.6792 7.225 65.0708 7.075 65.5375 7.075C66.0042 7.075 66.3875 7.225 66.6875 7.525C67.0042 7.80833 67.1625 8.16667 67.1625 8.6C67.1625 9.05 67.0125 9.43333 66.7125 9.75C66.4125 10.05 66.0208 10.2 65.5375 10.2ZM75.8699 26.15C74.5366 26.15 73.5033 25.7917 72.7699 25.075C72.0366 24.3583 71.6699 23.3333 71.6699 22V9.85H74.0699V21.9C74.0699 22.6167 74.2449 23.1667 74.5949 23.55C74.9616 23.9333 75.4783 24.125 76.1449 24.125C76.8949 24.125 77.5199 23.9167 78.0199 23.5L78.7699 25.225C78.4033 25.5417 77.9616 25.775 77.4449 25.925C76.9449 26.075 76.4199 26.15 75.8699 26.15ZM69.4199 14.725V12.75H77.8699V14.725H69.4199ZM88.6965 26.15C87.5632 26.15 86.5382 25.9 85.6215 25.4C84.7215 24.8833 84.0048 24.125 83.4715 23.125C82.9548 22.125 82.6965 20.875 82.6965 19.375C82.6965 17.875 82.9632 16.625 83.4965 15.625C84.0465 14.625 84.7715 13.875 85.6715 13.375C86.5882 12.875 87.5965 12.625 88.6965 12.625C89.9965 12.625 91.1465 12.9083 92.1465 13.475C93.1465 14.0417 93.9382 14.8333 94.5215 15.85C95.1048 16.85 95.3965 18.025 95.3965 19.375C95.3965 20.725 95.1048 21.9083 94.5215 22.925C93.9382 23.9417 93.1465 24.7333 92.1465 25.3C91.1465 25.8667 89.9965 26.15 88.6965 26.15ZM81.6715 26V7.45H84.0715V16.275L83.8215 19.35L83.9715 22.425V26H81.6715ZM88.4965 24.05C89.3465 24.05 90.1048 23.8583 90.7715 23.475C91.4548 23.0917 91.9882 22.55 92.3715 21.85C92.7715 21.1333 92.9715 20.3083 92.9715 19.375C92.9715 18.425 92.7715 17.6083 92.3715 16.925C91.9882 16.225 91.4548 15.6833 90.7715 15.3C90.1048 14.9167 89.3465 14.725 88.4965 14.725C87.6632 14.725 86.9048 14.9167 86.2215 15.3C85.5548 15.6833 85.0215 16.225 84.6215 16.925C84.2382 17.6083 84.0465 18.425 84.0465 19.375C84.0465 20.3083 84.2382 21.1333 84.6215 21.85C85.0215 22.55 85.5548 23.0917 86.2215 23.475C86.9048 23.8583 87.6632 24.05 88.4965 24.05ZM104.288 26.15C103.154 26.15 102.154 25.9417 101.288 25.525C100.438 25.1083 99.7708 24.475 99.2875 23.625C98.8208 22.7583 98.5875 21.675 98.5875 20.375V12.75H100.988V20.1C100.988 21.4 101.296 22.375 101.913 23.025C102.546 23.675 103.429 24 104.563 24C105.396 24 106.121 23.8333 106.738 23.5C107.354 23.15 107.829 22.65 108.163 22C108.496 21.3333 108.663 20.5333 108.663 19.6V12.75H111.063V26H108.788V22.425L109.163 23.375C108.729 24.2583 108.079 24.9417 107.213 25.425C106.346 25.9083 105.371 26.15 104.288 26.15ZM122.706 12.625C123.79 12.625 124.74 12.8333 125.556 13.25C126.39 13.6667 127.04 14.3 127.506 15.15C127.973 16 128.206 17.075 128.206 18.375V26H125.806V18.65C125.806 17.3667 125.49 16.4 124.856 15.75C124.24 15.1 123.365 14.775 122.231 14.775C121.381 14.775 120.64 14.9417 120.006 15.275C119.373 15.6083 118.881 16.1 118.531 16.75C118.198 17.4 118.031 18.2083 118.031 19.175V26H115.631V12.75H117.931V16.325L117.556 15.375C117.99 14.5083 118.656 13.8333 119.556 13.35C120.456 12.8667 121.506 12.625 122.706 12.625ZM139.723 12.625C140.806 12.625 141.756 12.8333 142.573 13.25C143.406 13.6667 144.056 14.3 144.523 15.15C144.99 16 145.223 17.075 145.223 18.375V26H142.823V18.65C142.823 17.3667 142.506 16.4 141.873 15.75C141.256 15.1 140.381 14.775 139.248 14.775C138.398 14.775 137.656 14.9417 137.023 15.275C136.39 15.6083 135.898 16.1 135.548 16.75C135.215 17.4 135.048 18.2083 135.048 19.175V26H132.648V12.75H134.948V16.325L134.573 15.375C135.006 14.5083 135.673 13.8333 136.573 13.35C137.473 12.8667 138.523 12.625 139.723 12.625ZM149.996 31C149.362 31 148.746 30.8917 148.146 30.675C147.546 30.475 147.029 30.175 146.596 29.775L147.621 27.975C147.954 28.2917 148.321 28.5333 148.721 28.7C149.121 28.8667 149.546 28.95 149.996 28.95C150.579 28.95 151.062 28.8 151.446 28.5C151.829 28.2 152.187 27.6667 152.521 26.9L153.346 25.075L153.596 24.775L158.796 12.75H161.146L154.721 27.325C154.337 28.2583 153.904 28.9917 153.421 29.525C152.954 30.0583 152.437 30.4333 151.871 30.65C151.304 30.8833 150.679 31 149.996 31ZM153.146 26.425L147.096 12.75H149.596L154.746 24.55L153.146 26.425ZM170.099 26V7.45H172.499V26H170.099ZM182.757 26.15C181.423 26.15 180.24 25.8583 179.207 25.275C178.173 24.6917 177.357 23.8917 176.757 22.875C176.157 21.8417 175.857 20.675 175.857 19.375C175.857 18.0583 176.157 16.8917 176.757 15.875C177.357 14.8583 178.173 14.0667 179.207 13.5C180.24 12.9167 181.423 12.625 182.757 12.625C184.073 12.625 185.248 12.9167 186.282 13.5C187.332 14.0667 188.148 14.8583 188.732 15.875C189.332 16.875 189.632 18.0417 189.632 19.375C189.632 20.6917 189.332 21.8583 188.732 22.875C188.148 23.8917 187.332 24.6917 186.282 25.275C185.248 25.8583 184.073 26.15 182.757 26.15ZM182.757 24.05C183.607 24.05 184.365 23.8583 185.032 23.475C185.715 23.0917 186.248 22.55 186.632 21.85C187.015 21.1333 187.207 20.3083 187.207 19.375C187.207 18.425 187.015 17.6083 186.632 16.925C186.248 16.225 185.715 15.6833 185.032 15.3C184.365 14.9167 183.607 14.725 182.757 14.725C181.907 14.725 181.148 14.9167 180.482 15.3C179.815 15.6833 179.282 16.225 178.882 16.925C178.482 17.6083 178.282 18.425 178.282 19.375C178.282 20.3083 178.482 21.1333 178.882 21.85C179.282 22.55 179.815 23.0917 180.482 23.475C181.148 23.8583 181.907 24.05 182.757 24.05ZM193.16 31C192.526 31 191.91 30.8917 191.31 30.675C190.71 30.475 190.193 30.175 189.76 29.775L190.785 27.975C191.118 28.2917 191.485 28.5333 191.885 28.7C192.285 28.8667 192.71 28.95 193.16 28.95C193.743 28.95 194.226 28.8 194.61 28.5C194.993 28.2 195.351 27.6667 195.685 26.9L196.51 25.075L196.76 24.775L201.96 12.75H204.31L197.885 27.325C197.501 28.2583 197.068 28.9917 196.585 29.525C196.118 30.0583 195.601 30.4333 195.035 30.65C194.468 30.8833 193.843 31 193.16 31ZM196.31 26.425L190.26 12.75H192.76L197.91 24.55L196.31 26.425ZM214.359 26V23.2L214.234 22.675V17.9C214.234 16.8833 213.934 16.1 213.334 15.55C212.751 14.9833 211.868 14.7 210.684 14.7C209.901 14.7 209.134 14.8333 208.384 15.1C207.634 15.35 207.001 15.6917 206.484 16.125L205.484 14.325C206.168 13.775 206.984 13.3583 207.934 13.075C208.901 12.775 209.909 12.625 210.959 12.625C212.776 12.625 214.176 13.0667 215.159 13.95C216.143 14.8333 216.634 16.1833 216.634 18V26H214.359ZM210.009 26.15C209.026 26.15 208.159 25.9833 207.409 25.65C206.676 25.3167 206.109 24.8583 205.709 24.275C205.309 23.675 205.109 23 205.109 22.25C205.109 21.5333 205.276 20.8833 205.609 20.3C205.959 19.7167 206.518 19.25 207.284 18.9C208.068 18.55 209.118 18.375 210.434 18.375H214.634V20.1H210.534C209.334 20.1 208.526 20.3 208.109 20.7C207.693 21.1 207.484 21.5833 207.484 22.15C207.484 22.8 207.743 23.325 208.259 23.725C208.776 24.1083 209.493 24.3 210.409 24.3C211.309 24.3 212.093 24.1 212.759 23.7C213.443 23.3 213.934 22.7167 214.234 21.95L214.709 23.6C214.393 24.3833 213.834 25.0083 213.034 25.475C212.234 25.925 211.226 26.15 210.009 26.15ZM221.076 26V7.45H223.476V26H221.076ZM232.95 26.15C231.617 26.15 230.583 25.7917 229.85 25.075C229.117 24.3583 228.75 23.3333 228.75 22V9.85H231.15V21.9C231.15 22.6167 231.325 23.1667 231.675 23.55C232.042 23.9333 232.558 24.125 233.225 24.125C233.975 24.125 234.6 23.9167 235.1 23.5L235.85 25.225C235.483 25.5417 235.042 25.775 234.525 25.925C234.025 26.075 233.5 26.15 232.95 26.15ZM226.5 14.725V12.75H234.95V14.725H226.5ZM239.082 31C238.449 31 237.832 30.8917 237.232 30.675C236.632 30.475 236.116 30.175 235.682 29.775L236.707 27.975C237.041 28.2917 237.407 28.5333 237.807 28.7C238.207 28.8667 238.632 28.95 239.082 28.95C239.666 28.95 240.149 28.8 240.532 28.5C240.916 28.2 241.274 27.6667 241.607 26.9L242.432 25.075L242.682 24.775L247.882 12.75H250.232L243.807 27.325C243.424 28.2583 242.991 28.9917 242.507 29.525C242.041 30.0583 241.524 30.4333 240.957 30.65C240.391 30.8833 239.766 31 239.082 31ZM242.232 26.425L236.182 12.75H238.682L243.832 24.55L242.232 26.425ZM266.211 26.15C265.111 26.15 264.103 25.9 263.186 25.4C262.286 24.8833 261.561 24.125 261.011 23.125C260.478 22.125 260.211 20.875 260.211 19.375C260.211 17.875 260.469 16.625 260.986 15.625C261.519 14.625 262.236 13.875 263.136 13.375C264.053 12.875 265.078 12.625 266.211 12.625C267.511 12.625 268.661 12.9083 269.661 13.475C270.661 14.0417 271.453 14.8333 272.036 15.85C272.619 16.85 272.911 18.025 272.911 19.375C272.911 20.725 272.619 21.9083 272.036 22.925C271.453 23.9417 270.661 24.7333 269.661 25.3C268.661 25.8667 267.511 26.15 266.211 26.15ZM259.186 30.85V12.75H261.486V16.325L261.336 19.4L261.586 22.475V30.85H259.186ZM266.011 24.05C266.861 24.05 267.619 23.8583 268.286 23.475C268.969 23.0917 269.503 22.55 269.886 21.85C270.286 21.1333 270.486 20.3083 270.486 19.375C270.486 18.425 270.286 17.6083 269.886 16.925C269.503 16.225 268.969 15.6833 268.286 15.3C267.619 14.9167 266.861 14.725 266.011 14.725C265.178 14.725 264.419 14.9167 263.736 15.3C263.069 15.6833 262.536 16.225 262.136 16.925C261.753 17.6083 261.561 18.425 261.561 19.375C261.561 20.3083 261.753 21.1333 262.136 21.85C262.536 22.55 263.069 23.0917 263.736 23.475C264.419 23.8583 265.178 24.05 266.011 24.05ZM281.902 26.15C280.569 26.15 279.385 25.8583 278.352 25.275C277.319 24.6917 276.502 23.8917 275.902 22.875C275.302 21.8417 275.002 20.675 275.002 19.375C275.002 18.0583 275.302 16.8917 275.902 15.875C276.502 14.8583 277.319 14.0667 278.352 13.5C279.385 12.9167 280.569 12.625 281.902 12.625C283.219 12.625 284.394 12.9167 285.427 13.5C286.477 14.0667 287.294 14.8583 287.877 15.875C288.477 16.875 288.777 18.0417 288.777 19.375C288.777 20.6917 288.477 21.8583 287.877 22.875C287.294 23.8917 286.477 24.6917 285.427 25.275C284.394 25.8583 283.219 26.15 281.902 26.15ZM281.902 24.05C282.752 24.05 283.51 23.8583 284.177 23.475C284.86 23.0917 285.394 22.55 285.777 21.85C286.16 21.1333 286.352 20.3083 286.352 19.375C286.352 18.425 286.16 17.6083 285.777 16.925C285.394 16.225 284.86 15.6833 284.177 15.3C283.51 14.9167 282.752 14.725 281.902 14.725C281.052 14.725 280.294 14.9167 279.627 15.3C278.96 15.6833 278.427 16.225 278.027 16.925C277.627 17.6083 277.427 18.425 277.427 19.375C277.427 20.3083 277.627 21.1333 278.027 21.85C278.427 22.55 278.96 23.0917 279.627 23.475C280.294 23.8583 281.052 24.05 281.902 24.05ZM292.096 26V12.75H294.496V26H292.096ZM293.296 10.2C292.83 10.2 292.438 10.05 292.121 9.75C291.821 9.45 291.671 9.08333 291.671 8.65C291.671 8.2 291.821 7.825 292.121 7.525C292.438 7.225 292.83 7.075 293.296 7.075C293.763 7.075 294.146 7.225 294.446 7.525C294.763 7.80833 294.921 8.16667 294.921 8.6C294.921 9.05 294.771 9.43333 294.471 9.75C294.171 10.05 293.78 10.2 293.296 10.2ZM306.154 12.625C307.237 12.625 308.187 12.8333 309.004 13.25C309.837 13.6667 310.487 14.3 310.954 15.15C311.42 16 311.654 17.075 311.654 18.375V26H309.254V18.65C309.254 17.3667 308.937 16.4 308.304 15.75C307.687 15.1 306.812 14.775 305.679 14.775C304.829 14.775 304.087 14.9417 303.454 15.275C302.82 15.6083 302.329 16.1 301.979 16.75C301.645 17.4 301.479 18.2083 301.479 19.175V26H299.079V12.75H301.379V16.325L301.004 15.375C301.437 14.5083 302.104 13.8333 303.004 13.35C303.904 12.8667 304.954 12.625 306.154 12.625ZM320.645 26.15C319.312 26.15 318.279 25.7917 317.545 25.075C316.812 24.3583 316.445 23.3333 316.445 22V9.85H318.845V21.9C318.845 22.6167 319.02 23.1667 319.37 23.55C319.737 23.9333 320.254 24.125 320.92 24.125C321.67 24.125 322.295 23.9167 322.795 23.5L323.545 25.225C323.179 25.5417 322.737 25.775 322.22 25.925C321.72 26.075 321.195 26.15 320.645 26.15ZM314.195 14.725V12.75H322.645V14.725H314.195ZM333.161 26V12.75H335.461V16.35L335.236 15.45C335.602 14.5333 336.219 13.8333 337.086 13.35C337.952 12.8667 339.019 12.625 340.286 12.625V14.95C340.186 14.9333 340.086 14.925 339.986 14.925C339.902 14.925 339.819 14.925 339.736 14.925C338.452 14.925 337.436 15.3083 336.686 16.075C335.936 16.8417 335.561 17.95 335.561 19.4V26H333.161ZM349.022 26.15C347.605 26.15 346.355 25.8583 345.272 25.275C344.205 24.6917 343.372 23.8917 342.772 22.875C342.188 21.8583 341.897 20.6917 341.897 19.375C341.897 18.0583 342.18 16.8917 342.747 15.875C343.33 14.8583 344.122 14.0667 345.122 13.5C346.138 12.9167 347.28 12.625 348.547 12.625C349.83 12.625 350.963 12.9083 351.947 13.475C352.93 14.0417 353.697 14.8417 354.247 15.875C354.813 16.8917 355.097 18.0833 355.097 19.45C355.097 19.55 355.088 19.6667 355.072 19.8C355.072 19.9333 355.063 20.0583 355.047 20.175H343.772V18.45H353.797L352.822 19.05C352.838 18.2 352.663 17.4417 352.297 16.775C351.93 16.1083 351.422 15.5917 350.772 15.225C350.138 14.8417 349.397 14.65 348.547 14.65C347.713 14.65 346.972 14.8417 346.322 15.225C345.672 15.5917 345.163 16.1167 344.797 16.8C344.43 17.4667 344.247 18.2333 344.247 19.1V19.5C344.247 20.3833 344.447 21.175 344.847 21.875C345.263 22.5583 345.838 23.0917 346.572 23.475C347.305 23.8583 348.147 24.05 349.097 24.05C349.88 24.05 350.588 23.9167 351.222 23.65C351.872 23.3833 352.438 22.9833 352.922 22.45L354.247 24C353.647 24.7 352.897 25.2333 351.997 25.6C351.113 25.9667 350.122 26.15 349.022 26.15ZM360.985 26L356.06 12.75H358.335L362.71 24.75H361.635L366.185 12.75H368.21L372.66 24.75H371.61L376.085 12.75H378.235L373.285 26H370.985L366.81 15.05H367.51L363.285 26H360.985ZM388.48 26V23.2L388.355 22.675V17.9C388.355 16.8833 388.055 16.1 387.455 15.55C386.872 14.9833 385.989 14.7 384.805 14.7C384.022 14.7 383.255 14.8333 382.505 15.1C381.755 15.35 381.122 15.6917 380.605 16.125L379.605 14.325C380.289 13.775 381.105 13.3583 382.055 13.075C383.022 12.775 384.03 12.625 385.08 12.625C386.897 12.625 388.297 13.0667 389.28 13.95C390.264 14.8333 390.755 16.1833 390.755 18V26H388.48ZM384.13 26.15C383.147 26.15 382.28 25.9833 381.53 25.65C380.797 25.3167 380.23 24.8583 379.83 24.275C379.43 23.675 379.23 23 379.23 22.25C379.23 21.5333 379.397 20.8833 379.73 20.3C380.08 19.7167 380.639 19.25 381.405 18.9C382.189 18.55 383.239 18.375 384.555 18.375H388.755V20.1H384.655C383.455 20.1 382.647 20.3 382.23 20.7C381.814 21.1 381.605 21.5833 381.605 22.15C381.605 22.8 381.864 23.325 382.38 23.725C382.897 24.1083 383.614 24.3 384.53 24.3C385.43 24.3 386.214 24.1 386.88 23.7C387.564 23.3 388.055 22.7167 388.355 21.95L388.83 23.6C388.514 24.3833 387.955 25.0083 387.155 25.475C386.355 25.925 385.347 26.15 384.13 26.15ZM395.197 26V12.75H397.497V16.35L397.272 15.45C397.639 14.5333 398.255 13.8333 399.122 13.35C399.989 12.8667 401.055 12.625 402.322 12.625V14.95C402.222 14.9333 402.122 14.925 402.022 14.925C401.939 14.925 401.855 14.925 401.772 14.925C400.489 14.925 399.472 15.3083 398.722 16.075C397.972 16.8417 397.597 17.95 397.597 19.4V26H395.197ZM410.633 26.15C409.349 26.15 408.199 25.8667 407.183 25.3C406.183 24.7333 405.391 23.9417 404.808 22.925C404.224 21.9083 403.933 20.725 403.933 19.375C403.933 18.025 404.224 16.85 404.808 15.85C405.391 14.8333 406.183 14.0417 407.183 13.475C408.199 12.9083 409.349 12.625 410.633 12.625C411.749 12.625 412.758 12.875 413.658 13.375C414.558 13.875 415.274 14.625 415.808 15.625C416.358 16.625 416.633 17.875 416.633 19.375C416.633 20.875 416.366 22.125 415.833 23.125C415.316 24.125 414.608 24.8833 413.708 25.4C412.808 25.9 411.783 26.15 410.633 26.15ZM410.833 24.05C411.666 24.05 412.416 23.8583 413.083 23.475C413.766 23.0917 414.299 22.55 414.683 21.85C415.083 21.1333 415.283 20.3083 415.283 19.375C415.283 18.425 415.083 17.6083 414.683 16.925C414.299 16.225 413.766 15.6833 413.083 15.3C412.416 14.9167 411.666 14.725 410.833 14.725C409.983 14.725 409.224 14.9167 408.558 15.3C407.891 15.6833 407.358 16.225 406.958 16.925C406.558 17.6083 406.358 18.425 406.358 19.375C406.358 20.3083 406.558 21.1333 406.958 21.85C407.358 22.55 407.891 23.0917 408.558 23.475C409.224 23.8583 409.983 24.05 410.833 24.05ZM415.358 26V22.425L415.508 19.35L415.258 16.275V7.45H417.658V26H415.358ZM425.999 26.15C424.899 26.15 423.849 26 422.849 25.7C421.865 25.4 421.09 25.0333 420.524 24.6L421.524 22.7C422.09 23.0833 422.79 23.4083 423.624 23.675C424.457 23.9417 425.307 24.075 426.174 24.075C427.29 24.075 428.09 23.9167 428.574 23.6C429.074 23.2833 429.324 22.8417 429.324 22.275C429.324 21.8583 429.174 21.5333 428.874 21.3C428.574 21.0667 428.174 20.8917 427.674 20.775C427.19 20.6583 426.649 20.5583 426.049 20.475C425.449 20.375 424.849 20.2583 424.249 20.125C423.649 19.975 423.099 19.775 422.599 19.525C422.099 19.2583 421.699 18.9 421.399 18.45C421.099 17.9833 420.949 17.3667 420.949 16.6C420.949 15.8 421.174 15.1 421.624 14.5C422.074 13.9 422.707 13.4417 423.524 13.125C424.357 12.7917 425.34 12.625 426.474 12.625C427.34 12.625 428.215 12.7333 429.099 12.95C429.999 13.15 430.732 13.4417 431.299 13.825L430.274 15.725C429.674 15.325 429.049 15.05 428.399 14.9C427.749 14.75 427.099 14.675 426.449 14.675C425.399 14.675 424.615 14.85 424.099 15.2C423.582 15.5333 423.324 15.9667 423.324 16.5C423.324 16.95 423.474 17.3 423.774 17.55C424.09 17.7833 424.49 17.9667 424.974 18.1C425.474 18.2333 426.024 18.35 426.624 18.45C427.224 18.5333 427.824 18.65 428.424 18.8C429.024 18.9333 429.565 19.125 430.049 19.375C430.549 19.625 430.949 19.975 431.249 20.425C431.565 20.875 431.724 21.475 431.724 22.225C431.724 23.025 431.49 23.7167 431.024 24.3C430.557 24.8833 429.899 25.3417 429.049 25.675C428.199 25.9917 427.182 26.15 425.999 26.15Z" fill="black"/>
</svg>
