<svg width="135" height="25" viewBox="0 0 135 25" fill="none" xmlns="http://www.w3.org/2000/svg">
<path d="M7.22236 24L0.0303594 2.3H4.21536L10.6324 21.923H8.55536L15.2204 2.3H18.9404L25.4194 21.923H23.4044L29.9764 2.3H33.8204L26.6284 24H22.3504L16.4294 6.299H17.5454L11.5314 24H7.22236ZM43.2712 24.217C41.4319 24.217 39.8199 23.8553 38.4352 23.132C37.0712 22.388 36.0069 21.3753 35.2422 20.094C34.4982 18.8127 34.1262 17.3557 34.1262 15.723C34.1262 14.0697 34.4879 12.6127 35.2112 11.352C35.9552 10.0707 36.9679 9.06833 38.2492 8.345C39.5512 7.62167 41.0289 7.26 42.6822 7.26C44.2942 7.26 45.7306 7.61133 46.9912 8.314C48.2519 9.01667 49.2439 10.0087 49.9672 11.29C50.6906 12.5713 51.0522 14.08 51.0522 15.816C51.0522 15.9813 51.0419 16.1673 51.0212 16.374C51.0212 16.5807 51.0109 16.777 50.9902 16.963H37.1952V14.39H48.9442L47.4252 15.196C47.4459 14.2453 47.2496 13.4083 46.8362 12.685C46.4229 11.9617 45.8546 11.3933 45.1312 10.98C44.4286 10.5667 43.6122 10.36 42.6822 10.36C41.7316 10.36 40.8946 10.5667 40.1712 10.98C39.4686 11.3933 38.9106 11.972 38.4972 12.716C38.1046 13.4393 37.9082 14.297 37.9082 15.289V15.909C37.9082 16.901 38.1356 17.7793 38.5902 18.544C39.0449 19.3087 39.6856 19.8977 40.5122 20.311C41.3389 20.7243 42.2896 20.931 43.3642 20.931C44.2942 20.931 45.1312 20.7863 45.8752 20.497C46.6192 20.2077 47.2806 19.753 47.8592 19.133L49.9362 21.52C49.1922 22.388 48.2519 23.0597 47.1152 23.535C45.9992 23.9897 44.7179 24.217 43.2712 24.217ZM70.7818 24.217C69.0871 24.217 67.5785 23.8553 66.2558 23.132C64.9331 22.388 63.8895 21.3753 63.1248 20.094C62.3601 18.8127 61.9778 17.3557 61.9778 15.723C61.9778 14.0697 62.3601 12.6127 63.1248 11.352C63.8895 10.0707 64.9331 9.06833 66.2558 8.345C67.5785 7.62167 69.0871 7.26 70.7818 7.26C72.4971 7.26 74.0161 7.62167 75.3388 8.345C76.6821 9.06833 77.7258 10.0603 78.4698 11.321C79.2345 12.5817 79.6168 14.049 79.6168 15.723C79.6168 17.3557 79.2345 18.8127 78.4698 20.094C77.7258 21.3753 76.6821 22.388 75.3388 23.132C74.0161 23.8553 72.4971 24.217 70.7818 24.217ZM70.7818 20.9C71.7325 20.9 72.5798 20.6933 73.3238 20.28C74.0678 19.8667 74.6465 19.2673 75.0598 18.482C75.4938 17.6967 75.7108 16.777 75.7108 15.723C75.7108 14.6483 75.4938 13.7287 75.0598 12.964C74.6465 12.1787 74.0678 11.5793 73.3238 11.166C72.5798 10.7527 71.7428 10.546 70.8128 10.546C69.8621 10.546 69.0148 10.7527 68.2708 11.166C67.5475 11.5793 66.9688 12.1787 66.5348 12.964C66.1008 13.7287 65.8838 14.6483 65.8838 15.723C65.8838 16.777 66.1008 17.6967 66.5348 18.482C66.9688 19.2673 67.5475 19.8667 68.2708 20.28C69.0148 20.6933 69.8518 20.9 70.7818 20.9ZM83.8493 24V6.516C83.8493 4.78 84.3556 3.39533 85.3683 2.362C86.4016 1.308 87.8689 0.781 89.7703 0.781C90.4523 0.781 91.0929 0.853333 91.6923 0.997999C92.3123 1.14267 92.8289 1.37 93.2423 1.68L92.1883 4.594C91.8989 4.36667 91.5683 4.20133 91.1963 4.098C90.8243 3.974 90.4419 3.912 90.0493 3.912C89.2433 3.912 88.6336 4.13933 88.2203 4.594C87.8069 5.028 87.6003 5.68933 87.6003 6.578V8.438L87.7243 10.174V24H83.8493ZM81.1213 10.67V7.57H92.1573V10.67H81.1213ZM95.3835 24V6.516C95.3835 4.78 95.8898 3.39533 96.9025 2.362C97.9358 1.308 99.4031 0.781 101.304 0.781C101.986 0.781 102.627 0.853333 103.226 0.997999C103.846 1.14267 104.363 1.37 104.776 1.68L103.722 4.594C103.433 4.36667 103.102 4.20133 102.73 4.098C102.358 3.974 101.976 3.912 101.583 3.912C100.777 3.912 100.168 4.13933 99.7545 4.594C99.3411 5.028 99.1345 5.68933 99.1345 6.578V8.438L99.2585 10.174V24H95.3835ZM92.6555 10.67V7.57H103.691V10.67H92.6555ZM113.839 24.217C111.999 24.217 110.387 23.8553 109.003 23.132C107.639 22.388 106.574 21.3753 105.81 20.094C105.066 18.8127 104.694 17.3557 104.694 15.723C104.694 14.0697 105.055 12.6127 105.779 11.352C106.523 10.0707 107.535 9.06833 108.817 8.345C110.119 7.62167 111.596 7.26 113.25 7.26C114.862 7.26 116.298 7.61133 117.559 8.314C118.819 9.01667 119.811 10.0087 120.535 11.29C121.258 12.5713 121.62 14.08 121.62 15.816C121.62 15.9813 121.609 16.1673 121.589 16.374C121.589 16.5807 121.578 16.777 121.558 16.963H107.763V14.39H119.512L117.993 15.196C118.013 14.2453 117.817 13.4083 117.404 12.685C116.99 11.9617 116.422 11.3933 115.699 10.98C114.996 10.5667 114.18 10.36 113.25 10.36C112.299 10.36 111.462 10.5667 110.739 10.98C110.036 11.3933 109.478 11.972 109.065 12.716C108.672 13.4393 108.476 14.297 108.476 15.289V15.909C108.476 16.901 108.703 17.7793 109.158 18.544C109.612 19.3087 110.253 19.8977 111.08 20.311C111.906 20.7243 112.857 20.931 113.932 20.931C114.862 20.931 115.699 20.7863 116.443 20.497C117.187 20.2077 117.848 19.753 118.427 19.133L120.504 21.52C119.76 22.388 118.819 23.0597 117.683 23.535C116.567 23.9897 115.285 24.217 113.839 24.217ZM125.342 24V7.446H129.031V12.003L128.597 10.67C129.093 9.554 129.868 8.70667 130.922 8.128C131.996 7.54933 133.329 7.26 134.921 7.26V10.949C134.755 10.9077 134.6 10.887 134.456 10.887C134.311 10.8663 134.166 10.856 134.022 10.856C132.554 10.856 131.387 11.29 130.519 12.158C129.651 13.0053 129.217 14.2763 129.217 15.971V24H125.342Z" fill="black"/>
</svg>
